{
  "accessors": [
    {
      "bufferView": 2,
      "componentType": 5126,
      "count": 28553,
      "max": [
        2.660240650177002,
        2.142474889755249,
        1.7620776891708374
      ],
      "min": [
        -2.813270092010498,
        -1.7299628257751465,
        -1.7620776891708374
      ],
      "type": "VEC3",
      "byteOffset": 0
    },
    {
      "bufferView": 2,
      "byteOffset": 342636,
      "componentType": 5126,
      "count": 28553,
      "max": [
        1,
        1,
        1
      ],
      "min": [
        -1,
        -1,
        -1
      ],
      "type": "VEC3"
    },
    {
      "bufferView": 1,
      "componentType": 5126,
      "count": 28553,
      "max": [
        1.0000001192092896,
        1.0000003576278687
      ],
      "min": [
        0,
        0
      ],
      "type": "VEC2",
      "byteOffset": 0
    },
    {
      "bufferView": 0,
      "componentType": 5125,
      "count": 124194,
      "type": "SCALAR",
      "byteOffset": 0
    },
    {
      "bufferView": 2,
      "byteOffset": 685272,
      "componentType": 5126,
      "count": 2570,
      "max": [
        0.8794727921485901,
        0.9726750254631042,
        10.788182258605957
      ],
      "min": [
        -4.51416015625,
        -6.452606678009033,
        -0.8794726729393005
      ],
      "type": "VEC3"
    },
    {
      "bufferView": 2,
      "byteOffset": 716112,
      "componentType": 5126,
      "count": 2570,
      "max": [
        1,
        1,
        1
      ],
      "min": [
        -1,
        -1,
        -1
      ],
      "type": "VEC3"
    },
    {
      "bufferView": 1,
      "byteOffset": 228424,
      "componentType": 5126,
      "count": 2570,
      "max": [
        1.0000001192092896,
        1.0000001192092896
      ],
      "min": [
        0,
        0
      ],
      "type": "VEC2"
    },
    {
      "bufferView": 0,
      "byteOffset": 496776,
      "componentType": 5125,
      "count": 11520,
      "type": "SCALAR"
    }
  ],
  "asset": {
    "extras": {
      "author": "octopuslover (https://sketchfab.com/octopuslover)",
      "license": "CC-BY-SA-4.0 (http://creativecommons.org/licenses/by-sa/4.0/)",
      "source": "https://sketchfab.com/3d-models/piggy-bank-4d5bf8d42f2d4c3493dc13a168944d64",
      "title": "Piggy Bank"
    },
    "generator": "Sketchfab-12.78.0",
    "version": "2.0"
  },
  "bufferViews": [
    {
      "buffer": 0,
      "byteLength": 542856,
      "name": "floatBufferViews",
      "target": 34963,
      "byteOffset": 0
    },
    {
      "buffer": 0,
      "byteLength": 248984,
      "byteOffset": 542856,
      "byteStride": 8,
      "name": "floatBufferViews",
      "target": 34962
    },
    {
      "buffer": 0,
      "byteLength": 746952,
      "byteOffset": 791840,
      "byteStride": 12,
      "name": "floatBufferViews",
      "target": 34962
    }
  ],
  "buffers": [
    {
      "name": "piggy",
      "byteLength": 1538792,
      "uri": "data:application/octet-stream;base64,"
    }
  ],
  "materials": [
    {
      "doubleSided": true,
      "name": "pigskin",
      "pbrMetallicRoughness": {
        "baseColorFactor": [
          0.8,
          0.29713,
          0.312935,
          1
        ],
        "metallicFactor": 0,
        "roughnessFactor": 0.112565
      },
      "emissiveFactor": [
        0,
        0,
        0
      ],
      "alphaMode": "OPAQUE"
    },
    {
      "doubleSided": true,
      "name": "Black",
      "pbrMetallicRoughness": {
        "baseColorFactor": [
          0,
          0,
          0,
          1
        ],
        "metallicFactor": 0,
        "roughnessFactor": 0
      },
      "emissiveFactor": [
        0,
        0,
        0
      ],
      "alphaMode": "OPAQUE"
    }
  ],
  "meshes": [
    {
      "name": "Object_0",
      "primitives": [
        {
          "attributes": {
            "NORMAL": 1,
            "POSITION": 0,
            "TEXCOORD_0": 2
          },
          "indices": 3,
          "material": 0,
          "mode": 4
        }
      ]
    },
    {
      "name": "Object_1",
      "primitives": [
        {
          "attributes": {
            "NORMAL": 5,
            "POSITION": 4,
            "TEXCOORD_0": 6
          },
          "indices": 7,
          "material": 1,
          "mode": 4
        }
      ]
    }
  ],
  "nodes": [
    {
      "children": [
        1
      ],
      "matrix": [
        1,
        0,
        0,
        0,
        0,
        3.828568672208042e-16,
        -1,
        0,
        0,
        1,
        3.828568672208042e-16,
        0,
        0,
        -1.1102230246251564e-16,
        -3.316896318153117e-17,
        1
      ],
      "name": "Sketchfab_model"
    },
    {
      "children": [
        2
      ],
      "name": "root"
    },
    {
      "children": [
        3,
        6
      ],
      "matrix": [
        1,
        0,
        0,
        0,
        0,
        2.220446049250313e-16,
        1,
        0,
        0,
        -1,
        2.220446049250313e-16,
        0,
        0,
        0,
        0,
        1
      ],
      "name": "GLTF_SceneRootNode"
    },
    {
      "children": [
        4
      ],
      "matrix": [
        1,
        0,
        0,
        0,
        0,
        1,
        0,
        0,
        0,
        0,
        1,
        0,
        -0.3670673668384552,
        0,
        0,
        1
      ],
      "name": "mirror_legs_1"
    },
    {
      "children": [
        5
      ],
      "matrix": [
        1,
        0,
        0,
        0,
        0,
        1,
        0,
        0,
        0,
        0,
        1,
        0,
        0.3670673668384552,
        0,
        0,
        1
      ],
      "name": "Pig_body_0"
    },
    {
      "mesh": 0,
      "name": "Object_5"
    },
    {
      "children": [
        7
      ],
      "matrix": [
        0.06773739645242262,
        0.027708969363249198,
        -0.018678929568272825,
        0,
        -0.04661938572928758,
        0.07485424003024269,
        -0.05801949013430969,
        0,
        -0.00235335809601219,
        0.05393888833142311,
        0.07148057649871453,
        0,
        1.6955783367156982,
        0.9868990182876587,
        -0.5449948310852051,
        1
      ],
      "name": "Sphere_2"
    },
    {
      "mesh": 1,
      "name": "Object_7"
    }
  ],
  "scene": 0,
  "scenes": [
    {
      "name": "Sketchfab_Scene",
      "nodes": [
        0
      ]
    }
  ]
}
